# xmcd
#
# Track frame offsets: 
#        150
#        11005
#        29797
#        50847
#        63132
#        82330
#        92827
#        118060
#        130295
#        145382
#        185917
#        192942
#        205560
#        222550
#        256185
#
# Disc length: 4213 seconds
#
# Revision: 11
# Processed by: cddbd v1.5.2PL0 Copyright (c) Steve Scherf et al.
# Submitted via: ExactAudioCopy v1.0b3
#
DISCID=ee10730f
DTITLE=Stevie Ray Vaughan - In Step
DYEAR=1989
DGENRE=Blues
TTITLE0=The House Is Rockin'
TTITLE1=Crossfire
TTITLE2=Tightrope
TTITLE3=Let Me Love You Baby
TTITLE4=Leave my Girl Alone
TTITLE5=Travis Walk
TTITLE6=Wall of Denial
TTITLE7=Scratch-n-Sniff
TTITLE8=Love Me Darlin'
TTITLE9=Riviera Paradise
TTITLE10=SRV Speaks
TTITLE11=The House Is Rockin' (Live)
TTITLE12=Let Me Love You Baby (Live)
TTITLE13=Texas Flood (Live)
TTITLE14=Life Without You (Live)
EXTD=Epic/Legacy EPC 494132 2 (P) 1999\n\nOriginally released in 1988 
EXTD=YEAR: 1989
EXTT0=
EXTT1=
EXTT2=
EXTT3=
EXTT4=
EXTT5=
EXTT6=
EXTT7=
EXTT8=
EXTT9=
EXTT10=
EXTT11=
EXTT12=
EXTT13=
EXTT14=
PLAYORDER=
